<svg width="17" height="24" viewBox="0 0 17 24" fill="none" xmlns="http://www.w3.org/2000/svg">
<path d="M4.83229 4.75474V3.72357C4.83229 3.53725 4.98391 3.38574 5.17012 3.38574H11.524C11.7103 3.38574 11.8618 3.53735 11.8618 3.72357V4.75474C11.8618 4.94106 11.7102 5.09257 11.524 5.09257H5.17023C4.98391 5.09268 4.83229 4.94106 4.83229 4.75474ZM10.2964 1.79867C10.2152 0.793532 9.37288 0 8.34711 0C7.32134 0 6.47903 0.793532 6.39777 1.79867H10.2964ZM16.6942 5.85457V21.8662C16.6942 23.0428 15.737 24 14.5605 24H2.13375C0.957211 24 0 23.0428 0 21.8662V5.85457C0 4.67803 0.957211 3.72082 2.13375 3.72082H3.24533C3.24533 3.72177 3.24523 3.72272 3.24523 3.72357V4.75474C3.24523 5.81616 4.1088 6.67963 5.17012 6.67963H11.524C12.5854 6.67963 13.4489 5.81616 13.4489 4.75474V3.72357C13.4489 3.72262 13.4488 3.72166 13.4488 3.72082H14.5604C15.737 3.72082 16.6942 4.67803 16.6942 5.85457ZM5.67724 15.1775C5.30418 14.9476 4.81526 15.0636 4.58534 15.4366L3.83498 16.6538L3.44763 16.3487C3.10356 16.0775 2.60437 16.1368 2.3333 16.4811C2.06212 16.8255 2.12148 17.3244 2.46577 17.5956L3.55248 18.4514C3.69341 18.5624 3.86662 18.6214 4.04341 18.6214C4.08955 18.6214 4.13599 18.6174 4.18212 18.6093C4.40484 18.5697 4.60026 18.4369 4.71897 18.2444L5.93636 16.2694C6.16638 15.8963 6.05031 15.4075 5.67724 15.1775ZM5.67724 9.46408C5.30418 9.23407 4.81526 9.35024 4.58534 9.7232L3.83498 10.9404L3.44763 10.6352C3.10356 10.3642 2.60437 10.4234 2.3333 10.7677C2.06212 11.1121 2.12148 11.611 2.46577 11.8821L3.55248 12.738C3.69341 12.849 3.86662 12.908 4.04341 12.908C4.08955 12.908 4.13599 12.904 4.18212 12.8958C4.40484 12.8563 4.60026 12.7235 4.71897 12.5309L5.93636 10.5561C6.16638 10.1829 6.05031 9.6941 5.67724 9.46408ZM13.8956 17.828C13.8956 17.3897 13.5404 17.0345 13.1021 17.0345H7.91765C7.47941 17.0345 7.12412 17.3897 7.12412 17.828C7.12412 18.2664 7.47941 18.6215 7.91765 18.6215H13.1021C13.5404 18.6215 13.8956 18.2664 13.8956 17.828ZM13.8956 12.1146C13.8956 11.6762 13.5404 11.3211 13.1021 11.3211H7.91765C7.47941 11.3211 7.12412 11.6762 7.12412 12.1146C7.12412 12.5529 7.47941 12.9081 7.91765 12.9081H13.1021C13.5404 12.9081 13.8956 12.5529 13.8956 12.1146Z" fill="#D16400"/>
</svg>
