<svg width="56" height="49" viewBox="0 0 56 49" fill="none" xmlns="http://www.w3.org/2000/svg">
<rect x="3.4292" y="0.975586" width="10.2857" height="10.2857" fill="#BDBDBD"/>
<rect x="15.9995" y="0.975586" width="10.2857" height="10.2857" fill="#BDBDBD"/>
<rect x="28.5701" y="0.975586" width="10.2857" height="10.2857" fill="#BDBDBD"/>
<rect x="41.1426" y="0.975586" width="10.2857" height="10.2857" fill="#BDBDBD"/>
<rect x="3.42896" y="13.5469" width="10.2857" height="10.2857" fill="#BDBDBD"/>
<rect x="15.9995" y="13.5469" width="10.2857" height="10.2857" fill="#BDBDBD"/>
<rect x="28.5701" y="13.5469" width="10.2857" height="10.2857" fill="#BDBDBD"/>
<rect x="41.1426" y="13.5469" width="10.2857" height="10.2857" fill="#BDBDBD"/>
<rect x="3.42896" y="26.1184" width="10.2857" height="10.2857" fill="#BDBDBD"/>
<rect x="15.9995" y="26.1184" width="10.2857" height="10.2857" fill="#BDBDBD"/>
<rect x="28.5701" y="26.1184" width="10.2857" height="10.2857" fill="#BDBDBD"/>
<rect x="41.1426" y="26.1184" width="10.2857" height="10.2857" fill="#BDBDBD"/>
<rect x="3.42896" y="38.6899" width="10.2857" height="10.2857" fill="#BDBDBD"/>
<rect x="15.9995" y="38.6899" width="10.2857" height="10.2857" fill="#BDBDBD"/>
<rect x="28.5701" y="38.6899" width="10.2857" height="10.2857" fill="#BDBDBD"/>
<rect x="41.1426" y="38.6899" width="10.2857" height="10.2857" fill="#BDBDBD"/>
<path fill-rule="evenodd" clip-rule="evenodd" d="M0.570801 38.5999L20.1225 20.2047L29.2337 29.3555L51.3198 11.2615L29.2337 34.7715L20.2341 25.7346L0.570801 38.5999Z" fill="#F2F2F2"/>
<path d="M33.3729 29.6466L33.1111 29.8591L32.8721 29.6212L23.9315 20.7253L7.58539 35.9621L23.8488 25.42L24.1027 25.2554L24.3173 25.4688L33.1288 34.2345L51.1977 15.1787L33.3729 29.6466Z" fill="white" stroke="#0B2C36" stroke-width="0.75"/>
</svg>
