<svg width="406" height="74" viewBox="0 0 406 74" fill="none" xmlns="http://www.w3.org/2000/svg">
<path d="M1.74 19.5V5.5H7.8C9.05333 5.5 10.1333 5.70667 11.04 6.12C11.9467 6.52 12.6467 7.1 13.14 7.86C13.6333 8.62 13.88 9.52667 13.88 10.58C13.88 11.62 13.6333 12.52 13.14 13.28C12.6467 14.04 11.9467 14.6267 11.04 15.04C10.1333 15.44 9.05333 15.64 7.8 15.64H3.54L4.98 14.18V19.5H1.74ZM4.98 14.54L3.54 13H7.62C8.62 13 9.36667 12.7867 9.86 12.36C10.3533 11.9333 10.6 11.34 10.6 10.58C10.6 9.80667 10.3533 9.20667 9.86 8.78C9.36667 8.35333 8.62 8.14 7.62 8.14H3.54L4.98 6.6V14.54ZM18.9973 11.14H25.7373V13.66H18.9973V11.14ZM19.2373 16.9H26.8573V19.5H16.0173V5.5H26.5973V8.1H19.2373V16.9ZM29.4744 19.5V5.5H42.2344V19.5H39.0144V7.4L39.7544 8.14H31.9544L32.6944 7.4V19.5H29.4744ZM46.1848 16.86C46.9582 17.0867 47.6048 17.1533 48.1248 17.06C48.6582 16.9533 49.1315 16.58 49.5448 15.94L50.2248 14.92L50.5248 14.58L55.1648 5.5H58.3448L52.3848 16.58C51.8515 17.58 51.2182 18.3467 50.4848 18.88C49.7648 19.4133 48.9715 19.7133 48.1048 19.78C47.2382 19.86 46.3382 19.7067 45.4048 19.32L46.1848 16.86ZM50.4648 17.28L44.1448 5.5H47.6048L52.2448 14.9L50.4648 17.28ZM59.8845 19.5V5.5H71.1845V8.08H63.1045V10.96H66.9845C68.6779 10.96 69.9645 11.3133 70.8445 12.02C71.7379 12.7267 72.1845 13.7533 72.1845 15.1C72.1845 16.4867 71.6912 17.5667 70.7045 18.34C69.7179 19.1133 68.3245 19.5 66.5245 19.5H59.8845ZM63.1045 17.1H66.3445C67.1712 17.1 67.8045 16.94 68.2445 16.62C68.6845 16.2867 68.9045 15.8067 68.9045 15.18C68.9045 13.9533 68.0512 13.34 66.3445 13.34H63.1045V17.1ZM74.4581 19.72C74.2181 19.72 73.9648 19.7 73.6981 19.66C73.4448 19.62 73.1648 19.5667 72.8581 19.5L73.0581 16.76C73.2448 16.8133 73.4381 16.84 73.6381 16.84C74.1848 16.84 74.6115 16.62 74.9181 16.18C75.2248 15.7267 75.4448 15.08 75.5781 14.24C75.7115 13.4 75.7981 12.38 75.8381 11.18L76.0381 5.5H86.7981V19.5H83.5981V7.4L84.3381 8.14H78.1581L78.8181 7.36L78.6981 11.06C78.6581 12.4333 78.5648 13.6533 78.4181 14.72C78.2715 15.7867 78.0448 16.6933 77.7381 17.44C77.4315 18.1867 77.0115 18.7533 76.4781 19.14C75.9448 19.5267 75.2715 19.72 74.4581 19.72ZM90.2947 19.5V5.5H93.5147V14.62L100.195 5.5H103.235V19.5H100.035V10.4L93.3547 19.5H90.2947ZM115.78 19.5L111.42 12.76L114.04 11.18L119.46 19.5H115.78ZM106.68 19.5V5.5H109.9V19.5H106.68ZM108.96 13.86V11.16H113.84V13.86H108.96ZM114.34 12.86L111.36 12.5L115.9 5.5H119.32L114.34 12.86ZM119.105 19.5L125.345 5.5H128.545L134.805 19.5H131.405L126.285 7.14H127.565L122.425 19.5H119.105ZM122.225 16.5L123.085 14.04H130.285L131.165 16.5H122.225ZM148.946 19.74C147.866 19.74 146.859 19.5667 145.926 19.22C145.006 18.86 144.206 18.3533 143.526 17.7C142.846 17.0467 142.313 16.28 141.926 15.4C141.553 14.52 141.366 13.5533 141.366 12.5C141.366 11.4467 141.553 10.48 141.926 9.6C142.313 8.72 142.846 7.95333 143.526 7.3C144.219 6.64667 145.026 6.14667 145.946 5.8C146.866 5.44 147.873 5.26 148.966 5.26C150.179 5.26 151.273 5.47333 152.246 5.9C153.233 6.31333 154.059 6.92667 154.726 7.74L152.646 9.66C152.166 9.11333 151.633 8.70667 151.046 8.44C150.459 8.16 149.819 8.02 149.126 8.02C148.473 8.02 147.873 8.12667 147.326 8.34C146.779 8.55333 146.306 8.86 145.906 9.26C145.506 9.66 145.193 10.1333 144.966 10.68C144.753 11.2267 144.646 11.8333 144.646 12.5C144.646 13.1667 144.753 13.7733 144.966 14.32C145.193 14.8667 145.506 15.34 145.906 15.74C146.306 16.14 146.779 16.4467 147.326 16.66C147.873 16.8733 148.473 16.98 149.126 16.98C149.819 16.98 150.459 16.8467 151.046 16.58C151.633 16.3 152.166 15.88 152.646 15.32L154.726 17.24C154.059 18.0533 153.233 18.6733 152.246 19.1C151.273 19.5267 150.173 19.74 148.946 19.74ZM159.818 11.14H166.558V13.66H159.818V11.14ZM160.058 16.9H167.678V19.5H156.838V5.5H167.418V8.1H160.058V16.9ZM170.295 19.5V5.5H176.815C178.441 5.5 179.708 5.81333 180.615 6.44C181.521 7.06667 181.975 7.96 181.975 9.12C181.975 10.2667 181.548 11.16 180.695 11.8C179.841 12.4267 178.708 12.74 177.295 12.74L177.675 11.9C179.248 11.9 180.468 12.2133 181.335 12.84C182.201 13.4667 182.635 14.3733 182.635 15.56C182.635 16.7867 182.168 17.7533 181.235 18.46C180.315 19.1533 178.968 19.5 177.195 19.5H170.295ZM173.515 17.1H177.075C177.821 17.1 178.388 16.9533 178.775 16.66C179.161 16.3667 179.355 15.9133 179.355 15.3C179.355 14.7133 179.161 14.28 178.775 14C178.388 13.7067 177.821 13.56 177.075 13.56H173.515V17.1ZM173.515 11.3H176.535C177.241 11.3 177.775 11.16 178.135 10.88C178.495 10.5867 178.675 10.16 178.675 9.6C178.675 9.04 178.495 8.62 178.135 8.34C177.775 8.04667 177.241 7.9 176.535 7.9H173.515V11.3ZM188.177 11.14H194.917V13.66H188.177V11.14ZM188.417 16.9H196.037V19.5H185.197V5.5H195.777V8.1H188.417V16.9ZM198.654 19.5V5.5H204.714C205.967 5.5 207.047 5.70667 207.954 6.12C208.861 6.52 209.561 7.1 210.054 7.86C210.547 8.62 210.794 9.52667 210.794 10.58C210.794 11.62 210.547 12.52 210.054 13.28C209.561 14.04 208.861 14.6267 207.954 15.04C207.047 15.44 205.967 15.64 204.714 15.64H200.454L201.894 14.18V19.5H198.654ZM201.894 14.54L200.454 13H204.534C205.534 13 206.281 12.7867 206.774 12.36C207.267 11.9333 207.514 11.34 207.514 10.58C207.514 9.80667 207.267 9.20667 206.774 8.78C206.281 8.35333 205.534 8.14 204.534 8.14H200.454L201.894 6.6V14.54ZM222.531 5.5H225.771V19.5H222.531V5.5ZM216.171 19.5H212.931V5.5H216.171V19.5ZM222.771 13.76H215.931V11.02H222.771V13.76ZM227.699 19.5L233.939 5.5H237.139L243.399 19.5H239.999L234.879 7.14H236.159L231.019 19.5H227.699ZM230.819 16.5L231.679 14.04H238.879L239.759 16.5H230.819ZM250.92 19.5V5.5H253.6L259.56 15.38H258.14L264 5.5H266.68L266.7 19.5H263.66L263.64 10.16H264.22L259.52 18.02H258.08L253.28 10.16H253.96V19.5H250.92ZM268.598 19.5L274.838 5.5H278.038L284.298 19.5H280.898L275.778 7.14H277.058L271.918 19.5H268.598ZM271.718 16.5L272.578 14.04H279.778L280.658 16.5H271.718ZM295.214 19.5L290.854 12.76L293.474 11.18L298.894 19.5H295.214ZM286.114 19.5V5.5H289.334V19.5H286.114ZM288.394 13.86V11.16H293.274V13.86H288.394ZM293.774 12.86L290.794 12.5L295.334 5.5H298.754L293.774 12.86ZM303.392 11.14H310.132V13.66H303.392V11.14ZM303.632 16.9H311.252V19.5H300.412V5.5H310.992V8.1H303.632V16.9ZM323.149 18.06V8.14H318.349L318.289 10.18C318.249 11.0467 318.189 11.8667 318.109 12.64C318.042 13.4133 317.936 14.12 317.789 14.76C317.642 15.3867 317.449 15.92 317.209 16.36C316.982 16.8 316.696 17.1133 316.349 17.3L312.889 16.86C313.369 16.8733 313.762 16.7067 314.069 16.36C314.389 16.0133 314.642 15.5267 314.829 14.9C315.016 14.26 315.149 13.5133 315.229 12.66C315.322 11.8067 315.389 10.88 315.429 9.88L315.589 5.5H326.349V18.06H323.149ZM312.429 22.4L312.449 16.86H328.309V22.4H325.309V19.5H315.429V22.4H312.429ZM337.19 19.74C336.083 19.74 335.057 19.56 334.11 19.2C333.177 18.84 332.363 18.3333 331.67 17.68C330.99 17.0267 330.457 16.26 330.07 15.38C329.697 14.5 329.51 13.54 329.51 12.5C329.51 11.46 329.697 10.5 330.07 9.62C330.457 8.74 330.997 7.97333 331.69 7.32C332.383 6.66667 333.197 6.16 334.13 5.8C335.063 5.44 336.077 5.26 337.17 5.26C338.277 5.26 339.29 5.44 340.21 5.8C341.143 6.16 341.95 6.66667 342.63 7.32C343.323 7.97333 343.863 8.74 344.25 9.62C344.637 10.4867 344.83 11.4467 344.83 12.5C344.83 13.54 344.637 14.5067 344.25 15.4C343.863 16.28 343.323 17.0467 342.63 17.7C341.95 18.34 341.143 18.84 340.21 19.2C339.29 19.56 338.283 19.74 337.19 19.74ZM337.17 16.98C337.797 16.98 338.37 16.8733 338.89 16.66C339.423 16.4467 339.89 16.14 340.29 15.74C340.69 15.34 340.997 14.8667 341.21 14.32C341.437 13.7733 341.55 13.1667 341.55 12.5C341.55 11.8333 341.437 11.2267 341.21 10.68C340.997 10.1333 340.69 9.66 340.29 9.26C339.903 8.86 339.443 8.55333 338.91 8.34C338.377 8.12667 337.797 8.02 337.17 8.02C336.543 8.02 335.963 8.12667 335.43 8.34C334.91 8.55333 334.45 8.86 334.05 9.26C333.65 9.66 333.337 10.1333 333.11 10.68C332.897 11.2267 332.79 11.8333 332.79 12.5C332.79 13.1533 332.897 13.76 333.11 14.32C333.337 14.8667 333.643 15.34 334.03 15.74C334.43 16.14 334.897 16.4467 335.43 16.66C335.963 16.8733 336.543 16.98 337.17 16.98ZM356.926 5.5H360.166V19.5H356.926V5.5ZM350.566 19.5H347.326V5.5H350.566V19.5ZM357.166 13.76H350.326V11.02H357.166V13.76ZM363.674 19.5V5.5H366.894V14.62L373.574 5.5H376.614V19.5H373.414V10.4L366.734 19.5H363.674ZM383.159 19.74C382.213 19.74 381.339 19.5667 380.539 19.22C379.753 18.86 379.106 18.3533 378.599 17.7L380.399 15.54C380.786 16.0467 381.193 16.4333 381.619 16.7C382.046 16.9533 382.506 17.08 382.999 17.08C384.319 17.08 384.979 16.3067 384.979 14.76V8.1H380.059V5.5H388.199V14.58C388.199 16.3133 387.773 17.6067 386.919 18.46C386.066 19.3133 384.813 19.74 383.159 19.74ZM389.594 19.5L395.834 5.5H399.034L405.294 19.5H401.894L396.774 7.14H398.054L392.914 19.5H389.594ZM392.714 16.5L393.574 14.04H400.774L401.654 16.5H392.714Z" fill="#0B2C36"/>
<path d="M11.02 46.06V36.14H6.22L6.16 38.18C6.12 39.0467 6.06 39.8667 5.98 40.64C5.91333 41.4133 5.80667 42.12 5.66 42.76C5.51333 43.3867 5.32 43.92 5.08 44.36C4.85333 44.8 4.56667 45.1133 4.22 45.3L0.76 44.86C1.24 44.8733 1.63333 44.7067 1.94 44.36C2.26 44.0133 2.51333 43.5267 2.7 42.9C2.88667 42.26 3.02 41.5133 3.1 40.66C3.19333 39.8067 3.26 38.88 3.3 37.88L3.46 33.5H14.22V46.06H11.02ZM0.3 50.4L0.32 44.86H16.18V50.4H13.18V47.5H3.3V50.4H0.3ZM18.3611 47.5V33.5H24.4211C25.6744 33.5 26.7544 33.7067 27.6611 34.12C28.5678 34.52 29.2678 35.1 29.7611 35.86C30.2544 36.62 30.5011 37.5267 30.5011 38.58C30.5011 39.62 30.2544 40.52 29.7611 41.28C29.2678 42.04 28.5678 42.6267 27.6611 43.04C26.7544 43.44 25.6744 43.64 24.4211 43.64H20.1611L21.6011 42.18V47.5H18.3611ZM21.6011 42.54L20.1611 41H24.2411C25.2411 41 25.9878 40.7867 26.4811 40.36C26.9744 39.9333 27.2211 39.34 27.2211 38.58C27.2211 37.8067 26.9744 37.2067 26.4811 36.78C25.9878 36.3533 25.2411 36.14 24.2411 36.14H20.1611L21.6011 34.6V42.54ZM48.1659 47.5L44.4059 40.76L47.1459 39.18L51.9059 47.5H48.1659ZM42.0259 41.86V39.16H46.3859V41.86H42.0259ZM47.3259 40.86L44.3259 40.5L48.2259 33.5H51.6459L47.3259 40.86ZM34.5859 47.5H30.8459L35.6059 39.18L38.3459 40.76L34.5859 47.5ZM42.9859 47.5H39.8059V33.5H42.9859V47.5ZM40.7459 41.86H36.3659V39.16H40.7459V41.86ZM35.4459 40.86L31.1059 33.5H34.5259L38.4059 40.5L35.4459 40.86ZM51.5858 47.5L57.8258 33.5H61.0258L67.2858 47.5H63.8858L58.7658 35.14H60.0458L54.9058 47.5H51.5858ZM54.7058 44.5L55.5658 42.04H62.7658L63.6458 44.5H54.7058ZM69.1423 47.5V33.5H75.6623C77.289 33.5 78.5557 33.8133 79.4623 34.44C80.369 35.0667 80.8223 35.96 80.8223 37.12C80.8223 38.2667 80.3957 39.16 79.5423 39.8C78.689 40.4267 77.5557 40.74 76.1423 40.74L76.5223 39.9C78.0957 39.9 79.3157 40.2133 80.1823 40.84C81.049 41.4667 81.4823 42.3733 81.4823 43.56C81.4823 44.7867 81.0157 45.7533 80.0823 46.46C79.1623 47.1533 77.8157 47.5 76.0423 47.5H69.1423ZM72.3623 45.1H75.9223C76.669 45.1 77.2357 44.9533 77.6223 44.66C78.009 44.3667 78.2023 43.9133 78.2023 43.3C78.2023 42.7133 78.009 42.28 77.6223 42C77.2357 41.7067 76.669 41.56 75.9223 41.56H72.3623V45.1ZM72.3623 39.3H75.3823C76.089 39.3 76.6223 39.16 76.9823 38.88C77.3423 38.5867 77.5223 38.16 77.5223 37.6C77.5223 37.04 77.3423 36.62 76.9823 36.34C76.6223 36.0467 76.089 35.9 75.3823 35.9H72.3623V39.3ZM87.0247 39.14H93.7647V41.66H87.0247V39.14ZM87.2647 44.9H94.8847V47.5H84.0447V33.5H94.6247V36.1H87.2647V44.9ZM107.102 33.5H110.342V47.5H107.102V33.5ZM100.742 47.5H97.5017V33.5H100.742V47.5ZM107.342 41.76H100.502V39.02H107.342V41.76ZM118.253 46.26L119.253 43.94C119.853 44.3 120.493 44.58 121.173 44.78C121.867 44.9667 122.54 45.0733 123.193 45.1C123.86 45.1133 124.46 45.0467 124.993 44.9C125.54 44.7533 125.973 44.5333 126.293 44.24C126.627 43.9467 126.793 43.5733 126.793 43.12C126.793 42.5867 126.573 42.1933 126.133 41.94C125.693 41.6733 125.107 41.54 124.373 41.54H120.953V39.1H124.133C124.787 39.1 125.293 38.9667 125.653 38.7C126.027 38.4333 126.213 38.0667 126.213 37.6C126.213 37.2 126.08 36.88 125.813 36.64C125.547 36.3867 125.18 36.2 124.713 36.08C124.26 35.96 123.747 35.9067 123.173 35.92C122.6 35.9333 122.007 36.0267 121.393 36.2C120.78 36.3733 120.193 36.6133 119.633 36.92L118.653 34.42C119.56 33.9533 120.513 33.6333 121.513 33.46C122.527 33.2733 123.5 33.2267 124.433 33.32C125.38 33.4 126.233 33.6133 126.993 33.96C127.753 34.2933 128.36 34.7333 128.813 35.28C129.267 35.8267 129.493 36.4733 129.493 37.22C129.493 37.8867 129.32 38.48 128.973 39C128.627 39.52 128.14 39.92 127.513 40.2C126.9 40.48 126.193 40.62 125.393 40.62L125.473 39.9C126.407 39.9 127.213 40.06 127.893 40.38C128.587 40.6867 129.12 41.12 129.493 41.68C129.88 42.2267 130.073 42.86 130.073 43.58C130.073 44.2467 129.893 44.8467 129.533 45.38C129.187 45.9 128.707 46.34 128.093 46.7C127.48 47.06 126.78 47.3267 125.993 47.5C125.207 47.6733 124.367 47.7467 123.473 47.72C122.593 47.6933 121.707 47.5667 120.813 47.34C119.92 47.1 119.067 46.74 118.253 46.26ZM131.058 47.5L137.298 33.5H140.498L146.758 47.5H143.358L138.238 35.14H139.518L134.378 47.5H131.058ZM134.178 44.5L135.038 42.04H142.238L143.118 44.5H134.178ZM148.615 47.5V33.5H155.135C156.762 33.5 158.028 33.8133 158.935 34.44C159.842 35.0667 160.295 35.96 160.295 37.12C160.295 38.2667 159.868 39.16 159.015 39.8C158.162 40.4267 157.028 40.74 155.615 40.74L155.995 39.9C157.568 39.9 158.788 40.2133 159.655 40.84C160.522 41.4667 160.955 42.3733 160.955 43.56C160.955 44.7867 160.488 45.7533 159.555 46.46C158.635 47.1533 157.288 47.5 155.515 47.5H148.615ZM151.835 45.1H155.395C156.142 45.1 156.708 44.9533 157.095 44.66C157.482 44.3667 157.675 43.9133 157.675 43.3C157.675 42.7133 157.482 42.28 157.095 42C156.708 41.7067 156.142 41.56 155.395 41.56H151.835V45.1ZM151.835 39.3H154.855C155.562 39.3 156.095 39.16 156.455 38.88C156.815 38.5867 156.995 38.16 156.995 37.6C156.995 37.04 156.815 36.62 156.455 36.34C156.095 36.0467 155.562 35.9 154.855 35.9H151.835V39.3ZM170.217 47.74C169.111 47.74 168.084 47.56 167.137 47.2C166.204 46.84 165.391 46.3333 164.697 45.68C164.017 45.0267 163.484 44.26 163.097 43.38C162.724 42.5 162.537 41.54 162.537 40.5C162.537 39.46 162.724 38.5 163.097 37.62C163.484 36.74 164.024 35.9733 164.717 35.32C165.411 34.6667 166.224 34.16 167.157 33.8C168.091 33.44 169.104 33.26 170.197 33.26C171.304 33.26 172.317 33.44 173.237 33.8C174.171 34.16 174.977 34.6667 175.657 35.32C176.351 35.9733 176.891 36.74 177.277 37.62C177.664 38.4867 177.857 39.4467 177.857 40.5C177.857 41.54 177.664 42.5067 177.277 43.4C176.891 44.28 176.351 45.0467 175.657 45.7C174.977 46.34 174.171 46.84 173.237 47.2C172.317 47.56 171.311 47.74 170.217 47.74ZM170.197 44.98C170.824 44.98 171.397 44.8733 171.917 44.66C172.451 44.4467 172.917 44.14 173.317 43.74C173.717 43.34 174.024 42.8667 174.237 42.32C174.464 41.7733 174.577 41.1667 174.577 40.5C174.577 39.8333 174.464 39.2267 174.237 38.68C174.024 38.1333 173.717 37.66 173.317 37.26C172.931 36.86 172.471 36.5533 171.937 36.34C171.404 36.1267 170.824 36.02 170.197 36.02C169.571 36.02 168.991 36.1267 168.457 36.34C167.937 36.5533 167.477 36.86 167.077 37.26C166.677 37.66 166.364 38.1333 166.137 38.68C165.924 39.2267 165.817 39.8333 165.817 40.5C165.817 41.1533 165.924 41.76 166.137 42.32C166.364 42.8667 166.671 43.34 167.057 43.74C167.457 44.14 167.924 44.4467 168.457 44.66C168.991 44.8733 169.571 44.98 170.197 44.98ZM189.243 46.06V36.14H184.443L184.383 38.18C184.343 39.0467 184.283 39.8667 184.203 40.64C184.136 41.4133 184.029 42.12 183.883 42.76C183.736 43.3867 183.543 43.92 183.303 44.36C183.076 44.8 182.789 45.1133 182.443 45.3L178.983 44.86C179.463 44.8733 179.856 44.7067 180.163 44.36C180.483 44.0133 180.736 43.5267 180.923 42.9C181.109 42.26 181.243 41.5133 181.323 40.66C181.416 39.8067 181.483 38.88 181.523 37.88L181.683 33.5H192.443V46.06H189.243ZM178.523 50.4L178.543 44.86H194.403V50.4H191.403V47.5H181.523V50.4H178.523ZM200.988 46.26L201.988 43.94C202.588 44.3 203.228 44.58 203.908 44.78C204.601 44.9667 205.274 45.0733 205.928 45.1C206.594 45.1133 207.194 45.0467 207.728 44.9C208.274 44.7533 208.708 44.5333 209.028 44.24C209.361 43.9467 209.528 43.5733 209.528 43.12C209.528 42.5867 209.308 42.1933 208.868 41.94C208.428 41.6733 207.841 41.54 207.108 41.54H203.688V39.1H206.868C207.521 39.1 208.028 38.9667 208.388 38.7C208.761 38.4333 208.948 38.0667 208.948 37.6C208.948 37.2 208.814 36.88 208.548 36.64C208.281 36.3867 207.914 36.2 207.448 36.08C206.994 35.96 206.481 35.9067 205.908 35.92C205.334 35.9333 204.741 36.0267 204.128 36.2C203.514 36.3733 202.928 36.6133 202.368 36.92L201.388 34.42C202.294 33.9533 203.248 33.6333 204.248 33.46C205.261 33.2733 206.234 33.2267 207.168 33.32C208.114 33.4 208.968 33.6133 209.728 33.96C210.488 34.2933 211.094 34.7333 211.548 35.28C212.001 35.8267 212.228 36.4733 212.228 37.22C212.228 37.8867 212.054 38.48 211.708 39C211.361 39.52 210.874 39.92 210.248 40.2C209.634 40.48 208.928 40.62 208.128 40.62L208.208 39.9C209.141 39.9 209.948 40.06 210.628 40.38C211.321 40.6867 211.854 41.12 212.228 41.68C212.614 42.2267 212.808 42.86 212.808 43.58C212.808 44.2467 212.628 44.8467 212.268 45.38C211.921 45.9 211.441 46.34 210.828 46.7C210.214 47.06 209.514 47.3267 208.728 47.5C207.941 47.6733 207.101 47.7467 206.208 47.72C205.328 47.6933 204.441 47.5667 203.548 47.34C202.654 47.1 201.801 46.74 200.988 46.26ZM213.793 47.5L220.033 33.5H223.233L229.493 47.5H226.093L220.973 35.14H222.253L217.113 47.5H213.793ZM216.913 44.5L217.773 42.04H224.973L225.853 44.5H216.913ZM243.633 47.74C242.553 47.74 241.547 47.5667 240.613 47.22C239.693 46.86 238.893 46.3533 238.213 45.7C237.533 45.0467 237 44.28 236.613 43.4C236.24 42.52 236.053 41.5533 236.053 40.5C236.053 39.4467 236.24 38.48 236.613 37.6C237 36.72 237.533 35.9533 238.213 35.3C238.907 34.6467 239.713 34.1467 240.633 33.8C241.553 33.44 242.56 33.26 243.653 33.26C244.867 33.26 245.96 33.4733 246.933 33.9C247.92 34.3133 248.747 34.9267 249.413 35.74L247.333 37.66C246.853 37.1133 246.32 36.7067 245.733 36.44C245.147 36.16 244.507 36.02 243.813 36.02C243.16 36.02 242.56 36.1267 242.013 36.34C241.467 36.5533 240.993 36.86 240.593 37.26C240.193 37.66 239.88 38.1333 239.653 38.68C239.44 39.2267 239.333 39.8333 239.333 40.5C239.333 41.1667 239.44 41.7733 239.653 42.32C239.88 42.8667 240.193 43.34 240.593 43.74C240.993 44.14 241.467 44.4467 242.013 44.66C242.56 44.8733 243.16 44.98 243.813 44.98C244.507 44.98 245.147 44.8467 245.733 44.58C246.32 44.3 246.853 43.88 247.333 43.32L249.413 45.24C248.747 46.0533 247.92 46.6733 246.933 47.1C245.96 47.5267 244.86 47.74 243.633 47.74ZM254.408 47.5V35.4L255.148 36.14H249.948V33.5H262.088V36.14H256.888L257.608 35.4V47.5H254.408ZM261.84 47.5L268.08 33.5H271.28L277.54 47.5H274.14L269.02 35.14H270.3L265.16 47.5H261.84ZM264.96 44.5L265.82 42.04H273.02L273.9 44.5H264.96ZM281.713 47.5V35.4L282.453 36.14H277.253V33.5H289.393V36.14H284.193L284.913 35.4V47.5H281.713ZM291.428 47.5V33.5H294.648V42.62L301.328 33.5H304.368V47.5H301.168V38.4L294.488 47.5H291.428ZM314.473 47.74C313.393 47.74 312.387 47.5667 311.453 47.22C310.533 46.86 309.733 46.3533 309.053 45.7C308.373 45.0467 307.84 44.28 307.453 43.4C307.08 42.52 306.893 41.5533 306.893 40.5C306.893 39.4467 307.08 38.48 307.453 37.6C307.84 36.72 308.373 35.9533 309.053 35.3C309.747 34.6467 310.553 34.1467 311.473 33.8C312.393 33.44 313.4 33.26 314.493 33.26C315.707 33.26 316.8 33.4733 317.773 33.9C318.76 34.3133 319.587 34.9267 320.253 35.74L318.173 37.66C317.693 37.1133 317.16 36.7067 316.573 36.44C315.987 36.16 315.347 36.02 314.653 36.02C314 36.02 313.4 36.1267 312.853 36.34C312.307 36.5533 311.833 36.86 311.433 37.26C311.033 37.66 310.72 38.1333 310.493 38.68C310.28 39.2267 310.173 39.8333 310.173 40.5C310.173 41.1667 310.28 41.7733 310.493 42.32C310.72 42.8667 311.033 43.34 311.433 43.74C311.833 44.14 312.307 44.4467 312.853 44.66C313.4 44.8733 314 44.98 314.653 44.98C315.347 44.98 315.987 44.8467 316.573 44.58C317.16 44.3 317.693 43.88 318.173 43.32L320.253 45.24C319.587 46.0533 318.76 46.6733 317.773 47.1C316.8 47.5267 315.7 47.74 314.473 47.74ZM325.248 47.5V35.4L325.988 36.14H320.788V33.5H332.928V36.14H327.728L328.448 35.4V47.5H325.248ZM334.963 47.5V33.5H338.183V42.62L344.863 33.5H347.903V47.5H344.703V38.4L338.023 47.5H334.963ZM360.448 47.5L356.088 40.76L358.708 39.18L364.128 47.5H360.448ZM351.348 47.5V33.5H354.568V47.5H351.348ZM353.628 41.86V39.16H358.508V41.86H353.628ZM359.008 40.86L356.028 40.5L360.568 33.5H363.988L359.008 40.86ZM363.773 47.5L370.013 33.5H373.213L379.473 47.5H376.073L370.953 35.14H372.233L367.093 47.5H363.773ZM366.893 44.5L367.753 42.04H374.953L375.833 44.5H366.893Z" fill="#0B2C36"/>
<path d="M4.354 70.64C3.58867 70.64 2.856 70.5327 2.156 70.318C1.456 70.094 0.900667 69.8093 0.49 69.464L1.12 68.05C1.512 68.358 1.99733 68.6147 2.576 68.82C3.15467 69.0253 3.74733 69.128 4.354 69.128C4.86733 69.128 5.28267 69.072 5.6 68.96C5.91733 68.848 6.15067 68.6987 6.3 68.512C6.44933 68.316 6.524 68.0967 6.524 67.854C6.524 67.5553 6.41667 67.3173 6.202 67.14C5.98733 66.9533 5.70733 66.8087 5.362 66.706C5.026 66.594 4.648 66.4913 4.228 66.398C3.81733 66.3047 3.402 66.1973 2.982 66.076C2.57133 65.9453 2.19333 65.782 1.848 65.586C1.512 65.3807 1.23667 65.11 1.022 64.774C0.807333 64.438 0.7 64.0087 0.7 63.486C0.7 62.954 0.84 62.4687 1.12 62.03C1.40933 61.582 1.84333 61.2273 2.422 60.966C3.01 60.6953 3.752 60.56 4.648 60.56C5.236 60.56 5.81933 60.6347 6.398 60.784C6.97667 60.9333 7.48067 61.148 7.91 61.428L7.336 62.842C6.89733 62.5807 6.44467 62.3893 5.978 62.268C5.51133 62.1373 5.06333 62.072 4.634 62.072C4.13 62.072 3.71933 62.1327 3.402 62.254C3.094 62.3753 2.86533 62.534 2.716 62.73C2.576 62.926 2.506 63.15 2.506 63.402C2.506 63.7007 2.60867 63.9433 2.814 64.13C3.02867 64.3073 3.304 64.4473 3.64 64.55C3.98533 64.6527 4.368 64.7553 4.788 64.858C5.208 64.9513 5.62333 65.0587 6.034 65.18C6.454 65.3013 6.832 65.46 7.168 65.656C7.51333 65.852 7.78867 66.118 7.994 66.454C8.20867 66.79 8.316 67.2147 8.316 67.728C8.316 68.2507 8.17133 68.736 7.882 69.184C7.602 69.6227 7.168 69.9773 6.58 70.248C5.992 70.5093 5.25 70.64 4.354 70.64ZM11.972 70.5V62.24H8.72397V60.7H17.04V62.24H13.792V70.5H11.972ZM16.5277 70.5L20.9377 60.7H22.7297L27.1537 70.5H25.2497L21.4557 61.666H22.1837L18.4037 70.5H16.5277ZM18.5577 68.232L19.0477 66.804H24.3397L24.8297 68.232H18.5577ZM29.8958 70.5V62.24H26.6478V60.7H34.9638V62.24H31.7158V70.5H29.8958ZM36.3297 70.5V60.7H38.1497V70.5H36.3297ZM43.8384 70.64C43.073 70.64 42.3404 70.5327 41.6404 70.318C40.9404 70.094 40.385 69.8093 39.9744 69.464L40.6044 68.05C40.9964 68.358 41.4817 68.6147 42.0604 68.82C42.639 69.0253 43.2317 69.128 43.8384 69.128C44.3517 69.128 44.767 69.072 45.0844 68.96C45.4017 68.848 45.635 68.6987 45.7844 68.512C45.9337 68.316 46.0084 68.0967 46.0084 67.854C46.0084 67.5553 45.901 67.3173 45.6864 67.14C45.4717 66.9533 45.1917 66.8087 44.8464 66.706C44.5104 66.594 44.1324 66.4913 43.7124 66.398C43.3017 66.3047 42.8864 66.1973 42.4664 66.076C42.0557 65.9453 41.6777 65.782 41.3324 65.586C40.9964 65.3807 40.721 65.11 40.5064 64.774C40.2917 64.438 40.1844 64.0087 40.1844 63.486C40.1844 62.954 40.3244 62.4687 40.6044 62.03C40.8937 61.582 41.3277 61.2273 41.9064 60.966C42.4944 60.6953 43.2364 60.56 44.1324 60.56C44.7204 60.56 45.3037 60.6347 45.8824 60.784C46.461 60.9333 46.965 61.148 47.3944 61.428L46.8204 62.842C46.3817 62.5807 45.929 62.3893 45.4624 62.268C44.9957 62.1373 44.5477 62.072 44.1184 62.072C43.6144 62.072 43.2037 62.1327 42.8864 62.254C42.5784 62.3753 42.3497 62.534 42.2004 62.73C42.0604 62.926 41.9904 63.15 41.9904 63.402C41.9904 63.7007 42.093 63.9433 42.2984 64.13C42.513 64.3073 42.7884 64.4473 43.1244 64.55C43.4697 64.6527 43.8524 64.7553 44.2724 64.858C44.6924 64.9513 45.1077 65.0587 45.5184 65.18C45.9384 65.3013 46.3164 65.46 46.6524 65.656C46.9977 65.852 47.273 66.118 47.4784 66.454C47.693 66.79 47.8004 67.2147 47.8004 67.728C47.8004 68.2507 47.6557 68.736 47.3664 69.184C47.0864 69.6227 46.6524 69.9773 46.0644 70.248C45.4764 70.5093 44.7344 70.64 43.8384 70.64ZM51.4563 70.5V62.24H48.2083V60.7H56.5243V62.24H53.2763V70.5H51.4563ZM57.8902 70.5V60.7H59.7102V70.5H57.8902ZM66.8969 70.64C66.1503 70.64 65.4549 70.5187 64.8109 70.276C64.1763 70.024 63.6209 69.674 63.1449 69.226C62.6783 68.7687 62.3143 68.232 62.0529 67.616C61.7916 67 61.6609 66.328 61.6609 65.6C61.6609 64.872 61.7916 64.2 62.0529 63.584C62.3143 62.968 62.6829 62.436 63.1589 61.988C63.6349 61.5307 64.1903 61.1807 64.8249 60.938C65.4596 60.686 66.1549 60.56 66.9109 60.56C67.7136 60.56 68.4463 60.7 69.1089 60.98C69.7716 61.2507 70.3316 61.6567 70.7889 62.198L69.6129 63.304C69.2583 62.9213 68.8616 62.6367 68.4229 62.45C67.9843 62.254 67.5083 62.156 66.9949 62.156C66.4816 62.156 66.0103 62.24 65.5809 62.408C65.1609 62.576 64.7923 62.814 64.4749 63.122C64.1669 63.43 63.9243 63.794 63.7469 64.214C63.5789 64.634 63.4949 65.096 63.4949 65.6C63.4949 66.104 63.5789 66.566 63.7469 66.986C63.9243 67.406 64.1669 67.77 64.4749 68.078C64.7923 68.386 65.1609 68.624 65.5809 68.792C66.0103 68.96 66.4816 69.044 66.9949 69.044C67.5083 69.044 67.9843 68.9507 68.4229 68.764C68.8616 68.568 69.2583 68.274 69.6129 67.882L70.7889 69.002C70.3316 69.534 69.7716 69.94 69.1089 70.22C68.4463 70.5 67.7089 70.64 66.8969 70.64ZM75.5571 70.64C74.7918 70.64 74.0591 70.5327 73.3591 70.318C72.6591 70.094 72.1038 69.8093 71.6931 69.464L72.3231 68.05C72.7151 68.358 73.2005 68.6147 73.7791 68.82C74.3578 69.0253 74.9505 69.128 75.5571 69.128C76.0705 69.128 76.4858 69.072 76.8031 68.96C77.1205 68.848 77.3538 68.6987 77.5031 68.512C77.6525 68.316 77.7271 68.0967 77.7271 67.854C77.7271 67.5553 77.6198 67.3173 77.4051 67.14C77.1905 66.9533 76.9105 66.8087 76.5651 66.706C76.2291 66.594 75.8511 66.4913 75.4311 66.398C75.0205 66.3047 74.6051 66.1973 74.1851 66.076C73.7745 65.9453 73.3965 65.782 73.0511 65.586C72.7151 65.3807 72.4398 65.11 72.2251 64.774C72.0105 64.438 71.9031 64.0087 71.9031 63.486C71.9031 62.954 72.0431 62.4687 72.3231 62.03C72.6125 61.582 73.0465 61.2273 73.6251 60.966C74.2131 60.6953 74.9551 60.56 75.8511 60.56C76.4391 60.56 77.0225 60.6347 77.6011 60.784C78.1798 60.9333 78.6838 61.148 79.1131 61.428L78.5391 62.842C78.1005 62.5807 77.6478 62.3893 77.1811 62.268C76.7145 62.1373 76.2665 62.072 75.8371 62.072C75.3331 62.072 74.9225 62.1327 74.6051 62.254C74.2971 62.3753 74.0685 62.534 73.9191 62.73C73.7791 62.926 73.7091 63.15 73.7091 63.402C73.7091 63.7007 73.8118 63.9433 74.0171 64.13C74.2318 64.3073 74.5071 64.4473 74.8431 64.55C75.1885 64.6527 75.5711 64.7553 75.9911 64.858C76.4111 64.9513 76.8265 65.0587 77.2371 65.18C77.6571 65.3013 78.0351 65.46 78.3711 65.656C78.7165 65.852 78.9918 66.118 79.1971 66.454C79.4118 66.79 79.5191 67.2147 79.5191 67.728C79.5191 68.2507 79.3745 68.736 79.0851 69.184C78.8051 69.6227 78.3711 69.9773 77.7831 70.248C77.1951 70.5093 76.4531 70.64 75.5571 70.64ZM85.193 70.5V60.7H86.691L92.837 68.246H92.095V60.7H93.901V70.5H92.403L86.257 62.954H86.999V70.5H85.193ZM101.119 70.64C100.354 70.64 99.6489 70.514 99.0049 70.262C98.3609 70.01 97.8009 69.66 97.3249 69.212C96.8489 68.7547 96.4803 68.2227 96.2189 67.616C95.9576 67 95.8269 66.328 95.8269 65.6C95.8269 64.872 95.9576 64.2047 96.2189 63.598C96.4803 62.982 96.8489 62.45 97.3249 62.002C97.8009 61.5447 98.3609 61.19 99.0049 60.938C99.6489 60.686 100.349 60.56 101.105 60.56C101.87 60.56 102.57 60.686 103.205 60.938C103.849 61.19 104.409 61.5447 104.885 62.002C105.361 62.45 105.73 62.982 105.991 63.598C106.252 64.2047 106.383 64.872 106.383 65.6C106.383 66.328 106.252 67 105.991 67.616C105.73 68.232 105.361 68.764 104.885 69.212C104.409 69.66 103.849 70.01 103.205 70.262C102.57 70.514 101.875 70.64 101.119 70.64ZM101.105 69.044C101.6 69.044 102.057 68.96 102.477 68.792C102.897 68.624 103.261 68.386 103.569 68.078C103.877 67.7607 104.115 67.3967 104.283 66.986C104.46 66.566 104.549 66.104 104.549 65.6C104.549 65.096 104.46 64.6387 104.283 64.228C104.115 63.808 103.877 63.444 103.569 63.136C103.261 62.8187 102.897 62.576 102.477 62.408C102.057 62.24 101.6 62.156 101.105 62.156C100.61 62.156 100.153 62.24 99.7329 62.408C99.3223 62.576 98.9583 62.8187 98.6409 63.136C98.3329 63.444 98.0903 63.808 97.9129 64.228C97.7449 64.6387 97.6609 65.096 97.6609 65.6C97.6609 66.0947 97.7449 66.552 97.9129 66.972C98.0903 67.392 98.3329 67.7607 98.6409 68.078C98.9489 68.386 99.3129 68.624 99.7329 68.792C100.153 68.96 100.61 69.044 101.105 69.044ZM108.312 70.5V60.7H112.344C113.212 60.7 113.954 60.84 114.57 61.12C115.195 61.4 115.676 61.8013 116.012 62.324C116.348 62.8467 116.516 63.4673 116.516 64.186C116.516 64.9047 116.348 65.5253 116.012 66.048C115.676 66.5613 115.195 66.958 114.57 67.238C113.954 67.5087 113.212 67.644 112.344 67.644H109.32L110.132 66.818V70.5H108.312ZM114.724 70.5L112.246 66.944H114.192L116.684 70.5H114.724ZM110.132 67.014L109.32 66.146H112.26C113.063 66.146 113.665 65.9733 114.066 65.628C114.477 65.2827 114.682 64.802 114.682 64.186C114.682 63.5607 114.477 63.08 114.066 62.744C113.665 62.408 113.063 62.24 112.26 62.24H109.32L110.132 61.344V67.014ZM120.404 70.5V62.24H117.156V60.7H125.472V62.24H122.224V70.5H120.404ZM133.725 60.7H135.545V70.5H133.725V60.7ZM128.657 70.5H126.837V60.7H128.657V70.5ZM133.865 66.3H128.503V64.746H133.865V66.3ZM142.041 70.5V60.7H143.539L147.823 67.854H147.039L151.253 60.7H152.751L152.765 70.5H151.043L151.029 63.402H151.393L147.809 69.38H146.997L143.357 63.402H143.777V70.5H142.041ZM154.026 70.5L158.436 60.7H160.228L164.652 70.5H162.748L158.954 61.666H159.682L155.902 70.5H154.026ZM156.056 68.232L156.546 66.804H161.838L162.328 68.232H156.056ZM170.297 70.64C169.551 70.64 168.855 70.5187 168.211 70.276C167.577 70.024 167.021 69.674 166.545 69.226C166.079 68.7687 165.715 68.232 165.453 67.616C165.192 67 165.061 66.328 165.061 65.6C165.061 64.872 165.192 64.2 165.453 63.584C165.715 62.968 166.083 62.436 166.559 61.988C167.035 61.5307 167.591 61.1807 168.225 60.938C168.86 60.686 169.555 60.56 170.311 60.56C171.114 60.56 171.847 60.7 172.509 60.98C173.172 61.2507 173.732 61.6567 174.189 62.198L173.013 63.304C172.659 62.9213 172.262 62.6367 171.823 62.45C171.385 62.254 170.909 62.156 170.395 62.156C169.882 62.156 169.411 62.24 168.981 62.408C168.561 62.576 168.193 62.814 167.875 63.122C167.567 63.43 167.325 63.794 167.147 64.214C166.979 64.634 166.895 65.096 166.895 65.6C166.895 66.104 166.979 66.566 167.147 66.986C167.325 67.406 167.567 67.77 167.875 68.078C168.193 68.386 168.561 68.624 168.981 68.792C169.411 68.96 169.882 69.044 170.395 69.044C170.909 69.044 171.385 68.9507 171.823 68.764C172.262 68.568 172.659 68.274 173.013 67.882L174.189 69.002C173.732 69.534 173.172 69.94 172.509 70.22C171.847 70.5 171.109 70.64 170.297 70.64ZM177.613 64.774H182.485V66.272H177.613V64.774ZM177.753 68.974H183.283V70.5H175.933V60.7H183.087V62.226H177.753V68.974ZM185.312 70.5V60.7H189.596C190.66 60.7 191.593 60.9053 192.396 61.316C193.199 61.7267 193.824 62.296 194.272 63.024C194.72 63.752 194.944 64.6107 194.944 65.6C194.944 66.58 194.72 67.4387 194.272 68.176C193.824 68.904 193.199 69.4733 192.396 69.884C191.593 70.2947 190.66 70.5 189.596 70.5H185.312ZM187.132 68.96H189.512C190.249 68.96 190.884 68.82 191.416 68.54C191.957 68.26 192.373 67.868 192.662 67.364C192.961 66.86 193.11 66.272 193.11 65.6C193.11 64.9187 192.961 64.3307 192.662 63.836C192.373 63.332 191.957 62.94 191.416 62.66C190.884 62.38 190.249 62.24 189.512 62.24H187.132V68.96ZM201.471 70.64C200.705 70.64 200.001 70.514 199.357 70.262C198.713 70.01 198.153 69.66 197.677 69.212C197.201 68.7547 196.832 68.2227 196.571 67.616C196.309 67 196.179 66.328 196.179 65.6C196.179 64.872 196.309 64.2047 196.571 63.598C196.832 62.982 197.201 62.45 197.677 62.002C198.153 61.5447 198.713 61.19 199.357 60.938C200.001 60.686 200.701 60.56 201.457 60.56C202.222 60.56 202.922 60.686 203.557 60.938C204.201 61.19 204.761 61.5447 205.237 62.002C205.713 62.45 206.081 62.982 206.343 63.598C206.604 64.2047 206.735 64.872 206.735 65.6C206.735 66.328 206.604 67 206.343 67.616C206.081 68.232 205.713 68.764 205.237 69.212C204.761 69.66 204.201 70.01 203.557 70.262C202.922 70.514 202.227 70.64 201.471 70.64ZM201.457 69.044C201.951 69.044 202.409 68.96 202.829 68.792C203.249 68.624 203.613 68.386 203.921 68.078C204.229 67.7607 204.467 67.3967 204.635 66.986C204.812 66.566 204.901 66.104 204.901 65.6C204.901 65.096 204.812 64.6387 204.635 64.228C204.467 63.808 204.229 63.444 203.921 63.136C203.613 62.8187 203.249 62.576 202.829 62.408C202.409 62.24 201.951 62.156 201.457 62.156C200.962 62.156 200.505 62.24 200.085 62.408C199.674 62.576 199.31 62.8187 198.993 63.136C198.685 63.444 198.442 63.808 198.265 64.228C198.097 64.6387 198.013 65.096 198.013 65.6C198.013 66.0947 198.097 66.552 198.265 66.972C198.442 67.392 198.685 67.7607 198.993 68.078C199.301 68.386 199.665 68.624 200.085 68.792C200.505 68.96 200.962 69.044 201.457 69.044ZM208.664 70.5V60.7H210.162L216.308 68.246H215.566V60.7H217.372V70.5H215.874L209.728 62.954H210.47V70.5H208.664ZM219.998 70.5V60.7H221.818V70.5H219.998ZM223.082 70.5L227.492 60.7H229.284L233.708 70.5H231.804L228.01 61.666H228.738L224.958 70.5H223.082ZM225.112 68.232L225.602 66.804H230.894L231.384 68.232H225.112Z" fill="#D16400"/>
</svg>
