<svg width="24" height="25" viewBox="0 0 24 25" fill="none" xmlns="http://www.w3.org/2000/svg">
<path d="M21.8629 10.9825L11.0711 16.9311C10.3341 17.2996 9.49185 16.7732 9.49185 15.9836V3.08608C9.49185 2.55965 8.96543 2.13851 8.49164 2.29644C3.22736 3.77043 -0.562915 8.87678 0.0687982 14.7201C0.647869 20.0371 4.91193 24.3538 10.2815 24.9328C17.283 25.6698 23.179 20.2476 23.179 13.4041C23.179 12.7723 23.1263 12.1406 23.021 11.5089C22.9158 10.9825 22.3367 10.7193 21.8629 10.9825Z" fill="#D16400"/>
<path d="M12.4926 13.608L22.8632 8.08049C23.4949 7.76463 23.7055 6.92235 23.2844 6.34328C20.9154 3.07942 17.2304 0.710499 13.019 0.0261427C12.282 -0.131786 11.5977 0.447285 11.5977 1.18428V13.0815C11.5977 13.5553 12.0714 13.8185 12.4926 13.608Z" fill="#D16400"/>
</svg>
