<svg width="25" height="24" viewBox="0 0 25 24" fill="none" xmlns="http://www.w3.org/2000/svg">
<path d="M10.4694 1.60751L11.6895 0.387451C12.2061 -0.12915 13.0414 -0.12915 13.5526 0.387451L24.2363 11.0657C24.7529 11.5823 24.7529 12.4177 24.2363 12.9288L13.5526 23.6125C13.036 24.1292 12.2006 24.1292 11.6895 23.6125L10.4694 22.3925C9.94733 21.8704 9.95832 21.0185 10.4914 20.5074L17.1138 14.1983H1.31898C0.588047 14.1983 0 13.6103 0 12.8793V11.1207C0 10.3897 0.588047 9.80169 1.31898 9.80169H17.1138L10.4914 3.49256C9.95283 2.98145 9.94184 2.12961 10.4694 1.60751Z" fill="#D16400"/>
</svg>
