<svg width="24" height="24" viewBox="0 0 24 24" fill="none" xmlns="http://www.w3.org/2000/svg">
<path d="M22 2.226H18.75V0.726C18.736 0.322 18.406 0 18 0C17.594 0 17.264 0.322 17.25 0.725V0.726V2.226H12.75V0.726C12.736 0.322 12.406 0 12 0C11.594 0 11.264 0.322 11.25 0.725V0.726V2.226H6.75V0.726C6.736 0.322 6.406 0 6 0C5.594 0 5.264 0.322 5.25 0.725V0.726V2.226H2C0.896 2.226 0 3.121 0 4.225V21.975C0 23.08 0.895 23.975 2 23.975H22C23.105 23.975 24 23.08 24 21.975V4.225C24 3.121 23.104 2.226 22 2.226ZM22.5 21.976C22.5 22.252 22.276 22.475 22.001 22.476H2C1.724 22.476 1.5 22.252 1.5 21.976V4.226C1.501 3.95 1.724 3.727 2 3.727H5.25V5.227C5.264 5.631 5.594 5.953 6 5.953C6.406 5.953 6.736 5.631 6.75 5.228V5.227V3.727H11.25V5.227C11.264 5.631 11.594 5.953 12 5.953C12.406 5.953 12.736 5.631 12.75 5.228V5.227V3.727H17.25V5.227C17.264 5.631 17.594 5.953 18 5.953C18.406 5.953 18.736 5.631 18.75 5.228V5.227V3.727H22C22.276 3.727 22.499 3.951 22.499 4.226L22.5 21.976Z" fill="#D16400"/>
<path d="M5.25 8.97601H8.25V11.226H5.25V8.97601Z" fill="#D16400"/>
<path d="M5.25 12.726H8.25V14.976H5.25V12.726Z" fill="#D16400"/>
<path d="M5.25 16.476H8.25V18.726H5.25V16.476Z" fill="#D16400"/>
<path d="M10.5 16.476H13.5V18.726H10.5V16.476Z" fill="#D16400"/>
<path d="M10.5 12.726H13.5V14.976H10.5V12.726Z" fill="#D16400"/>
<path d="M10.5 8.97601H13.5V11.226H10.5V8.97601Z" fill="#D16400"/>
<path d="M15.75 16.476H18.75V18.726H15.75V16.476Z" fill="#D16400"/>
<path d="M15.75 12.726H18.75V14.976H15.75V12.726Z" fill="#D16400"/>
<path d="M15.75 8.97601H18.75V11.226H15.75V8.97601Z" fill="#D16400"/>
</svg>
