<svg width="56" height="37" viewBox="0 0 56 37" fill="none" xmlns="http://www.w3.org/2000/svg">
<path d="M8.22681 9.84277H16.2426V17.8146H8.22681V9.84277Z" fill="#E0E0E0"/>
<path d="M8.22681 0.500048H16.2426V8.47205H8.22681V0.500048Z" fill="#E0E0E0"/>
<path d="M8.22681 19.1854H16.2426V27.1573H8.22681V19.1854Z" fill="#E0E0E0"/>
<path d="M8.22681 28.5281H16.2426V36.5H8.22681V28.5281Z" fill="#E0E0E0"/>
<path d="M17.6187 9.84277H25.6344V17.8146H17.6187V9.84277Z" fill="#E0E0E0"/>
<path d="M17.6187 0.500048H25.6344V8.47205H17.6187V0.500048Z" fill="#E0E0E0"/>
<path d="M17.6187 19.1854H25.6344V27.1573H17.6187V19.1854Z" fill="#E0E0E0"/>
<path d="M17.6187 28.5281H25.6344V36.5H17.6187V28.5281Z" fill="#E0E0E0"/>
<path d="M27.0105 9.84277H35.0262V17.8146H27.0105V9.84277Z" fill="#E0E0E0"/>
<path d="M27.0105 0.500048H35.0262V8.47205H27.0105V0.500048Z" fill="#E0E0E0"/>
<path d="M27.0105 19.1854H35.0262V27.1573H27.0105V19.1854Z" fill="#E0E0E0"/>
<path d="M36.4026 9.84277H44.4183V17.8146H36.4026V9.84277Z" fill="#E0E0E0"/>
<path d="M36.4026 0.500048H44.4183V8.47205H36.4026V0.500048Z" fill="#E0E0E0"/>
<path d="M36.4026 19.1854H44.4183V27.1573H36.4026V19.1854Z" fill="#E0E0E0"/>
<path fill-rule="evenodd" clip-rule="evenodd" d="M4 27.382L19.3228 11.8667L26.4633 19.5849L43.7723 4.32361L26.4633 24.1529L19.4102 16.5309L4 27.382Z" fill="#0B2C36"/>
<path d="M4 27.382L19.3228 11.8667L26.4633 19.5849L43.7723 4.32361L26.4633 24.1529L19.4102 16.5309L4 27.382Z" stroke="#0B2C36" stroke-width="0.75" stroke-miterlimit="22.9256"/>
<path fill-rule="evenodd" clip-rule="evenodd" d="M11.1882 27.3328L26.5108 11.8176L33.6514 19.5357L50.9603 4.27419L33.6514 24.1037L26.5983 16.4818L11.1882 27.3328Z" fill="white"/>
<path d="M11.1882 27.3328L26.5108 11.8176L33.6514 19.5357L50.9603 4.27419L33.6514 24.1037L26.5983 16.4818L11.1882 27.3328Z" stroke="#0B2C36" stroke-width="0.75" stroke-miterlimit="22.9256"/>
</svg>
