<svg width="214" height="39" viewBox="0 0 214 39" fill="none" xmlns="http://www.w3.org/2000/svg">
<path d="M5.31421 14.64C4.54887 14.64 3.81621 14.5327 3.11621 14.318C2.41621 14.094 1.86087 13.8093 1.45021 13.464L2.08021 12.05C2.47221 12.358 2.95754 12.6147 3.53621 12.82C4.11487 13.0253 4.70754 13.128 5.31421 13.128C5.82754 13.128 6.24287 13.072 6.56021 12.96C6.87754 12.848 7.11087 12.6987 7.26021 12.512C7.40954 12.316 7.48421 12.0967 7.48421 11.854C7.48421 11.5553 7.37687 11.3173 7.16221 11.14C6.94754 10.9533 6.66754 10.8087 6.32221 10.706C5.98621 10.594 5.60821 10.4913 5.18821 10.398C4.77754 10.3047 4.36221 10.1973 3.94221 10.076C3.53154 9.94533 3.15354 9.782 2.80821 9.586C2.47221 9.38067 2.19687 9.11 1.98221 8.774C1.76754 8.438 1.66021 8.00867 1.66021 7.486C1.66021 6.954 1.80021 6.46867 2.08021 6.03C2.36954 5.582 2.80354 5.22733 3.38221 4.966C3.97021 4.69533 4.71221 4.56 5.60821 4.56C6.19621 4.56 6.77954 4.63467 7.35821 4.784C7.93687 4.93333 8.44087 5.148 8.87021 5.428L8.29621 6.842C7.85754 6.58067 7.40487 6.38933 6.93821 6.268C6.47154 6.13733 6.02354 6.072 5.59421 6.072C5.09021 6.072 4.67954 6.13267 4.36221 6.254C4.05421 6.37533 3.82554 6.534 3.67621 6.73C3.53621 6.926 3.46621 7.15 3.46621 7.402C3.46621 7.70067 3.56887 7.94333 3.77421 8.13C3.98887 8.30733 4.26421 8.44733 4.60021 8.55C4.94554 8.65267 5.32821 8.75533 5.74821 8.858C6.16821 8.95133 6.58354 9.05867 6.99421 9.18C7.41421 9.30133 7.79221 9.46 8.12821 9.656C8.47354 9.852 8.74887 10.118 8.95421 10.454C9.16887 10.79 9.27621 11.2147 9.27621 11.728C9.27621 12.2507 9.13154 12.736 8.84221 13.184C8.56221 13.6227 8.12821 13.9773 7.54021 14.248C6.95221 14.5093 6.21021 14.64 5.31421 14.64ZM12.9322 14.5V6.24H9.68417V4.7H18.0002V6.24H14.7522V14.5H12.9322ZM17.4879 14.5L21.8979 4.7H23.6899L28.1139 14.5H26.2099L22.4159 5.666H23.1439L19.3639 14.5H17.4879ZM19.5179 12.232L20.0079 10.804H25.2999L25.7899 12.232H19.5179ZM30.856 14.5V6.24H27.608V4.7H35.924V6.24H32.676V14.5H30.856ZM37.2899 14.5V4.7H39.1099V14.5H37.2899ZM44.7986 14.64C44.0332 14.64 43.3006 14.5327 42.6006 14.318C41.9006 14.094 41.3452 13.8093 40.9346 13.464L41.5646 12.05C41.9566 12.358 42.4419 12.6147 43.0206 12.82C43.5992 13.0253 44.1919 13.128 44.7986 13.128C45.3119 13.128 45.7272 13.072 46.0446 12.96C46.3619 12.848 46.5952 12.6987 46.7446 12.512C46.8939 12.316 46.9686 12.0967 46.9686 11.854C46.9686 11.5553 46.8612 11.3173 46.6466 11.14C46.4319 10.9533 46.1519 10.8087 45.8066 10.706C45.4706 10.594 45.0926 10.4913 44.6726 10.398C44.2619 10.3047 43.8466 10.1973 43.4266 10.076C43.0159 9.94533 42.6379 9.782 42.2926 9.586C41.9566 9.38067 41.6812 9.11 41.4666 8.774C41.2519 8.438 41.1446 8.00867 41.1446 7.486C41.1446 6.954 41.2846 6.46867 41.5646 6.03C41.8539 5.582 42.2879 5.22733 42.8666 4.966C43.4546 4.69533 44.1966 4.56 45.0926 4.56C45.6806 4.56 46.2639 4.63467 46.8426 4.784C47.4212 4.93333 47.9252 5.148 48.3546 5.428L47.7806 6.842C47.3419 6.58067 46.8892 6.38933 46.4226 6.268C45.9559 6.13733 45.5079 6.072 45.0786 6.072C44.5746 6.072 44.1639 6.13267 43.8466 6.254C43.5386 6.37533 43.3099 6.534 43.1606 6.73C43.0206 6.926 42.9506 7.15 42.9506 7.402C42.9506 7.70067 43.0532 7.94333 43.2586 8.13C43.4732 8.30733 43.7486 8.44733 44.0846 8.55C44.4299 8.65267 44.8126 8.75533 45.2326 8.858C45.6526 8.95133 46.0679 9.05867 46.4786 9.18C46.8986 9.30133 47.2766 9.46 47.6126 9.656C47.9579 9.852 48.2332 10.118 48.4386 10.454C48.6532 10.79 48.7606 11.2147 48.7606 11.728C48.7606 12.2507 48.6159 12.736 48.3266 13.184C48.0466 13.6227 47.6126 13.9773 47.0246 14.248C46.4366 14.5093 45.6946 14.64 44.7986 14.64ZM52.4165 14.5V6.24H49.1685V4.7H57.4845V6.24H54.2365V14.5H52.4165ZM58.8504 14.5V4.7H60.6704V14.5H58.8504ZM67.8571 14.64C67.1105 14.64 66.4151 14.5187 65.7711 14.276C65.1365 14.024 64.5811 13.674 64.1051 13.226C63.6385 12.7687 63.2745 12.232 63.0131 11.616C62.7518 11 62.6211 10.328 62.6211 9.6C62.6211 8.872 62.7518 8.2 63.0131 7.584C63.2745 6.968 63.6431 6.436 64.1191 5.988C64.5951 5.53067 65.1505 5.18067 65.7851 4.938C66.4198 4.686 67.1151 4.56 67.8711 4.56C68.6738 4.56 69.4065 4.7 70.0691 4.98C70.7318 5.25067 71.2918 5.65667 71.7491 6.198L70.5731 7.304C70.2185 6.92133 69.8218 6.63667 69.3831 6.45C68.9445 6.254 68.4685 6.156 67.9551 6.156C67.4418 6.156 66.9705 6.24 66.5411 6.408C66.1211 6.576 65.7525 6.814 65.4351 7.122C65.1271 7.43 64.8845 7.794 64.7071 8.214C64.5391 8.634 64.4551 9.096 64.4551 9.6C64.4551 10.104 64.5391 10.566 64.7071 10.986C64.8845 11.406 65.1271 11.77 65.4351 12.078C65.7525 12.386 66.1211 12.624 66.5411 12.792C66.9705 12.96 67.4418 13.044 67.9551 13.044C68.4685 13.044 68.9445 12.9507 69.3831 12.764C69.8218 12.568 70.2185 12.274 70.5731 11.882L71.7491 13.002C71.2918 13.534 70.7318 13.94 70.0691 14.22C69.4065 14.5 68.6691 14.64 67.8571 14.64ZM76.5173 14.64C75.752 14.64 75.0193 14.5327 74.3193 14.318C73.6193 14.094 73.064 13.8093 72.6533 13.464L73.2833 12.05C73.6753 12.358 74.1607 12.6147 74.7393 12.82C75.318 13.0253 75.9107 13.128 76.5173 13.128C77.0307 13.128 77.446 13.072 77.7633 12.96C78.0807 12.848 78.314 12.6987 78.4633 12.512C78.6127 12.316 78.6873 12.0967 78.6873 11.854C78.6873 11.5553 78.58 11.3173 78.3653 11.14C78.1507 10.9533 77.8707 10.8087 77.5253 10.706C77.1893 10.594 76.8113 10.4913 76.3913 10.398C75.9807 10.3047 75.5653 10.1973 75.1453 10.076C74.7347 9.94533 74.3567 9.782 74.0113 9.586C73.6753 9.38067 73.4 9.11 73.1853 8.774C72.9707 8.438 72.8633 8.00867 72.8633 7.486C72.8633 6.954 73.0033 6.46867 73.2833 6.03C73.5727 5.582 74.0067 5.22733 74.5853 4.966C75.1733 4.69533 75.9153 4.56 76.8113 4.56C77.3993 4.56 77.9827 4.63467 78.5613 4.784C79.14 4.93333 79.644 5.148 80.0733 5.428L79.4993 6.842C79.0607 6.58067 78.608 6.38933 78.1413 6.268C77.6747 6.13733 77.2267 6.072 76.7973 6.072C76.2933 6.072 75.8827 6.13267 75.5653 6.254C75.2573 6.37533 75.0287 6.534 74.8793 6.73C74.7393 6.926 74.6693 7.15 74.6693 7.402C74.6693 7.70067 74.772 7.94333 74.9773 8.13C75.192 8.30733 75.4673 8.44733 75.8033 8.55C76.1487 8.65267 76.5313 8.75533 76.9513 8.858C77.3713 8.95133 77.7867 9.05867 78.1973 9.18C78.6173 9.30133 78.9953 9.46 79.3313 9.656C79.6767 9.852 79.952 10.118 80.1573 10.454C80.372 10.79 80.4793 11.2147 80.4793 11.728C80.4793 12.2507 80.3347 12.736 80.0453 13.184C79.7653 13.6227 79.3313 13.9773 78.7433 14.248C78.1553 14.5093 77.4133 14.64 76.5173 14.64Z" fill="#0B2C36"/>
<path d="M2.27621 35.5V25.7H3.77421L9.92021 33.246H9.17821V25.7H10.9842V35.5H9.48621L3.34021 27.954H4.08221V35.5H2.27621ZM18.2022 35.64C17.4369 35.64 16.7322 35.514 16.0882 35.262C15.4442 35.01 14.8842 34.66 14.4082 34.212C13.9322 33.7547 13.5635 33.2227 13.3022 32.616C13.0409 32 12.9102 31.328 12.9102 30.6C12.9102 29.872 13.0409 29.2047 13.3022 28.598C13.5635 27.982 13.9322 27.45 14.4082 27.002C14.8842 26.5447 15.4442 26.19 16.0882 25.938C16.7322 25.686 17.4322 25.56 18.1882 25.56C18.9535 25.56 19.6535 25.686 20.2882 25.938C20.9322 26.19 21.4922 26.5447 21.9682 27.002C22.4442 27.45 22.8129 27.982 23.0742 28.598C23.3355 29.2047 23.4662 29.872 23.4662 30.6C23.4662 31.328 23.3355 32 23.0742 32.616C22.8129 33.232 22.4442 33.764 21.9682 34.212C21.4922 34.66 20.9322 35.01 20.2882 35.262C19.6535 35.514 18.9582 35.64 18.2022 35.64ZM18.1882 34.044C18.6829 34.044 19.1402 33.96 19.5602 33.792C19.9802 33.624 20.3442 33.386 20.6522 33.078C20.9602 32.7607 21.1982 32.3967 21.3662 31.986C21.5435 31.566 21.6322 31.104 21.6322 30.6C21.6322 30.096 21.5435 29.6387 21.3662 29.228C21.1982 28.808 20.9602 28.444 20.6522 28.136C20.3442 27.8187 19.9802 27.576 19.5602 27.408C19.1402 27.24 18.6829 27.156 18.1882 27.156C17.6935 27.156 17.2362 27.24 16.8162 27.408C16.4055 27.576 16.0415 27.8187 15.7242 28.136C15.4162 28.444 15.1735 28.808 14.9962 29.228C14.8282 29.6387 14.7442 30.096 14.7442 30.6C14.7442 31.0947 14.8282 31.552 14.9962 31.972C15.1735 32.392 15.4162 32.7607 15.7242 33.078C16.0322 33.386 16.3962 33.624 16.8162 33.792C17.2362 33.96 17.6935 34.044 18.1882 34.044ZM25.3953 35.5V25.7H29.4273C30.2953 25.7 31.0373 25.84 31.6533 26.12C32.2787 26.4 32.7593 26.8013 33.0953 27.324C33.4313 27.8467 33.5993 28.4673 33.5993 29.186C33.5993 29.9047 33.4313 30.5253 33.0953 31.048C32.7593 31.5613 32.2787 31.958 31.6533 32.238C31.0373 32.5087 30.2953 32.644 29.4273 32.644H26.4033L27.2153 31.818V35.5H25.3953ZM31.8073 35.5L29.3293 31.944H31.2753L33.7673 35.5H31.8073ZM27.2153 32.014L26.4033 31.146H29.3433C30.146 31.146 30.748 30.9733 31.1493 30.628C31.56 30.2827 31.7653 29.802 31.7653 29.186C31.7653 28.5607 31.56 28.08 31.1493 27.744C30.748 27.408 30.146 27.24 29.3433 27.24H26.4033L27.2153 26.344V32.014ZM37.4869 35.5V27.24H34.2389V25.7H42.5549V27.24H39.3069V35.5H37.4869ZM50.8087 25.7H52.6287V35.5H50.8087V25.7ZM45.7407 35.5H43.9207V25.7H45.7407V35.5ZM50.9487 31.3H45.5867V29.746H50.9487V31.3ZM59.1239 35.5V25.7H60.6219L64.9059 32.854H64.1219L68.3359 25.7H69.8339L69.8479 35.5H68.1259L68.1119 28.402H68.4759L64.8919 34.38H64.0799L60.4399 28.402H60.8599V35.5H59.1239ZM71.109 35.5L75.519 25.7H77.311L81.735 35.5H79.831L76.037 26.666H76.765L72.985 35.5H71.109ZM73.139 33.232L73.629 31.804H78.921L79.411 33.232H73.139ZM87.3806 35.64C86.6339 35.64 85.9386 35.5187 85.2946 35.276C84.6599 35.024 84.1046 34.674 83.6286 34.226C83.1619 33.7687 82.7979 33.232 82.5366 32.616C82.2752 32 82.1446 31.328 82.1446 30.6C82.1446 29.872 82.2752 29.2 82.5366 28.584C82.7979 27.968 83.1666 27.436 83.6426 26.988C84.1186 26.5307 84.6739 26.1807 85.3086 25.938C85.9432 25.686 86.6386 25.56 87.3946 25.56C88.1972 25.56 88.9299 25.7 89.5926 25.98C90.2552 26.2507 90.8152 26.6567 91.2726 27.198L90.0966 28.304C89.7419 27.9213 89.3452 27.6367 88.9066 27.45C88.4679 27.254 87.9919 27.156 87.4786 27.156C86.9652 27.156 86.4939 27.24 86.0646 27.408C85.6446 27.576 85.2759 27.814 84.9586 28.122C84.6506 28.43 84.4079 28.794 84.2306 29.214C84.0626 29.634 83.9786 30.096 83.9786 30.6C83.9786 31.104 84.0626 31.566 84.2306 31.986C84.4079 32.406 84.6506 32.77 84.9586 33.078C85.2759 33.386 85.6446 33.624 86.0646 33.792C86.4939 33.96 86.9652 34.044 87.4786 34.044C87.9919 34.044 88.4679 33.9507 88.9066 33.764C89.3452 33.568 89.7419 33.274 90.0966 32.882L91.2726 34.002C90.8152 34.534 90.2552 34.94 89.5926 35.22C88.9299 35.5 88.1926 35.64 87.3806 35.64ZM94.6964 29.774H99.5684V31.272H94.6964V29.774ZM94.8364 33.974H100.366V35.5H93.0164V25.7H100.17V27.226H94.8364V33.974ZM102.395 35.5V25.7H106.679C107.743 25.7 108.677 25.9053 109.479 26.316C110.282 26.7267 110.907 27.296 111.355 28.024C111.803 28.752 112.027 29.6107 112.027 30.6C112.027 31.58 111.803 32.4387 111.355 33.176C110.907 33.904 110.282 34.4733 109.479 34.884C108.677 35.2947 107.743 35.5 106.679 35.5H102.395ZM104.215 33.96H106.595C107.333 33.96 107.967 33.82 108.499 33.54C109.041 33.26 109.456 32.868 109.745 32.364C110.044 31.86 110.193 31.272 110.193 30.6C110.193 29.9187 110.044 29.3307 109.745 28.836C109.456 28.332 109.041 27.94 108.499 27.66C107.967 27.38 107.333 27.24 106.595 27.24H104.215V33.96ZM118.554 35.64C117.788 35.64 117.084 35.514 116.44 35.262C115.796 35.01 115.236 34.66 114.76 34.212C114.284 33.7547 113.915 33.2227 113.654 32.616C113.392 32 113.262 31.328 113.262 30.6C113.262 29.872 113.392 29.2047 113.654 28.598C113.915 27.982 114.284 27.45 114.76 27.002C115.236 26.5447 115.796 26.19 116.44 25.938C117.084 25.686 117.784 25.56 118.54 25.56C119.305 25.56 120.005 25.686 120.64 25.938C121.284 26.19 121.844 26.5447 122.32 27.002C122.796 27.45 123.164 27.982 123.426 28.598C123.687 29.2047 123.818 29.872 123.818 30.6C123.818 31.328 123.687 32 123.426 32.616C123.164 33.232 122.796 33.764 122.32 34.212C121.844 34.66 121.284 35.01 120.64 35.262C120.005 35.514 119.31 35.64 118.554 35.64ZM118.54 34.044C119.034 34.044 119.492 33.96 119.912 33.792C120.332 33.624 120.696 33.386 121.004 33.078C121.312 32.7607 121.55 32.3967 121.718 31.986C121.895 31.566 121.984 31.104 121.984 30.6C121.984 30.096 121.895 29.6387 121.718 29.228C121.55 28.808 121.312 28.444 121.004 28.136C120.696 27.8187 120.332 27.576 119.912 27.408C119.492 27.24 119.034 27.156 118.54 27.156C118.045 27.156 117.588 27.24 117.168 27.408C116.757 27.576 116.393 27.8187 116.076 28.136C115.768 28.444 115.525 28.808 115.348 29.228C115.18 29.6387 115.096 30.096 115.096 30.6C115.096 31.0947 115.18 31.552 115.348 31.972C115.525 32.392 115.768 32.7607 116.076 33.078C116.384 33.386 116.748 33.624 117.168 33.792C117.588 33.96 118.045 34.044 118.54 34.044ZM125.747 35.5V25.7H127.245L133.391 33.246H132.649V25.7H134.455V35.5H132.957L126.811 27.954H127.553V35.5H125.747ZM137.081 35.5V25.7H138.901V35.5H137.081ZM140.166 35.5L144.576 25.7H146.368L150.792 35.5H148.888L145.094 26.666H145.822L142.042 35.5H140.166ZM142.196 33.232L142.686 31.804H147.978L148.468 33.232H142.196Z" fill="#D16400"/>
</svg>
